<svg width="45" height="52" viewBox="0 0 45 52" fill="none" xmlns="http://www.w3.org/2000/svg">
<path d="M17.9457 1.12255C16.6874 0.825868 15.8042 1.06772 15.0308 1.84964C13.0968 3.80518 13.2048 6.72166 10.4893 7.15873C9.44458 7.32689 7.1187 7.1618 6.31608 7.85145C5.52815 8.52849 4.93234 9.77639 5.44101 11.8914C5.86846 13.6687 6.0132 14.9881 4.76955 16.6808C3.57708 18.3038 1.90024 18.9171 2.00438 20.9284C2.11315 23.0291 5.20368 24.7626 5.56989 26.834C5.58692 26.9304 5.60197 27.0299 5.61487 27.1326C5.87319 29.1903 4.54703 31.6422 5.97428 33.1467C6.42853 33.6256 7.14103 34.0134 8.22149 34.1886C9.78996 34.4916 12.4873 34.456 13.5685 37.2364C14.1924 38.8406 15.3865 42.6156 19.985 39.8565C22.2672 38.4872 24.9255 40.132 27.5243 40.7062C28.1585 40.8463 28.8076 40.8316 29.428 40.5071C31.4393 39.4554 31.4814 36.298 33.5194 35.2991C33.5867 35.2661 33.6559 35.2338 33.727 35.2023C35.896 34.2405 38.0338 34.9984 39.5971 33.2136C41.1076 31.4891 39.3004 27.9072 40.2399 25.8161C40.7232 24.7403 41.4876 23.6181 42.6031 22.6924C43.7794 21.7163 43.9185 19.5591 41.4802 17.7197C38.2608 15.1442 42.0551 8.55068 38.1001 7.38645C37.6655 7.25852 37.2009 7.18597 36.7213 7.18597C35.2063 7.18597 32.0052 6.48016 31.3208 3.65691C30.9108 2.33797 29.8236 -0.35339 25.5994 1.89238C24.9362 2.35541 23.5331 2.94847 21.9862 2.7129C20.5505 2.49427 19.3592 1.45584 17.9457 1.12255Z" stroke="#4F158D" stroke-width="1.5"/>
<path d="M7.47303 34.2421L2.23291 43.0112L10.2535 41.0863L12.1784 48.9999L16.67 41.0863" stroke="#4F158D" stroke-width="1.5"/>
<path d="M37.9513 34.2421L43.1914 43.0112L35.1708 41.0863L33.2459 48.9999L28.7543 41.0863" stroke="#4F158D" stroke-width="1.5"/>
<path d="M22.7655 8.14844C29.7349 8.14844 35.3846 13.7982 35.3846 20.7675C35.3846 27.7368 29.7349 33.3866 22.7655 33.3866C15.7962 33.3866 10.1465 27.7368 10.1465 20.7675C10.1465 13.7982 15.7962 8.14844 22.7655 8.14844Z" stroke="#4F158D" stroke-width="1.5"/>
<path d="M14.959 19.6981L20.2408 24.7913C20.6333 25.1698 21.2565 25.1641 21.6421 24.7786L30.5724 15.8483" stroke="#4F158D" stroke-width="1.5"/>
</svg>
