<svg width="51" height="49" viewBox="0 0 51 49" fill="none" xmlns="http://www.w3.org/2000/svg">
<path d="M6.0647 10.5L21.5542 1.30313C21.8689 1.11627 22.2605 1.11627 22.5752 1.30313L38.0647 10.5M6.0647 10.5V28.4152C6.0647 28.7764 6.25956 29.1096 6.57444 29.2867L22.0647 38M6.0647 10.5L22.0647 19.5M38.0647 10.5V28.4152C38.0647 28.7764 37.8698 29.1096 37.555 29.2867L22.0647 38M38.0647 10.5L22.0647 19.5M22.0647 38V19.5" stroke="#4F158D" stroke-width="1.5"/>
<path d="M7.86787 33.8851C7.83492 33.7148 7.73568 33.5644 7.59195 33.4671C7.44822 33.3699 7.27176 33.3336 7.10133 33.3664L2.73539 34.5935C2.565 34.6265 2.41466 34.7257 2.31739 34.8694C2.22012 35.0132 2.18387 35.1896 2.21662 35.36L3.44376 39.726C3.48174 39.8914 3.58242 40.0356 3.72461 40.1282C3.8668 40.2208 4.03938 40.2546 4.206 40.2225C4.37263 40.1904 4.52028 40.0948 4.61785 39.956C4.71542 39.8172 4.75529 39.6459 4.72907 39.4782L3.80112 36.6644L15.6463 44.6809L12.8325 45.6088C12.7456 45.6224 12.6623 45.6534 12.5876 45.6999C12.513 45.7463 12.4484 45.8073 12.3979 45.8793C12.3473 45.9513 12.3117 46.0327 12.2933 46.1187C12.2749 46.2046 12.274 46.2935 12.2906 46.3798C12.3073 46.4662 12.3411 46.5483 12.3902 46.6213C12.4393 46.6943 12.5025 46.7566 12.5762 46.8046C12.6499 46.8526 12.7325 46.8853 12.8191 46.9007C12.9057 46.9161 12.9945 46.9138 13.0802 46.8942L17.4462 45.667C17.6166 45.6341 17.7669 45.5348 17.8642 45.3911C17.9614 45.2474 17.9977 45.0709 17.9649 44.9005L16.7378 40.5345C16.7242 40.4476 16.6933 40.3644 16.6468 40.2897C16.6003 40.215 16.5393 40.1505 16.4673 40.0999C16.3954 40.0494 16.314 40.0138 16.228 39.9954C16.142 39.9769 16.0532 39.976 15.9668 39.9927C15.8805 40.0093 15.7983 40.0432 15.7254 40.0923C15.6524 40.1413 15.59 40.2046 15.542 40.2783C15.494 40.352 15.4614 40.4346 15.446 40.5212C15.4306 40.6078 15.4328 40.6966 15.4525 40.7823L16.3804 43.5962L4.53523 35.5796L7.3491 34.6517C7.51949 34.6187 7.66983 34.5195 7.7671 34.3758C7.86437 34.232 7.90062 34.0556 7.86787 33.8851Z" fill="#4F158D"/>
<path d="M26.8324 39.8622C26.662 39.8291 26.4855 39.8651 26.3417 39.9622C26.1978 40.0592 26.0983 40.2094 26.0651 40.3797L25.5744 44.8882C25.5414 45.0586 25.5773 45.2351 25.6744 45.379C25.7714 45.5229 25.9216 45.6224 26.0919 45.6556L30.6004 46.1463C30.7681 46.1728 30.9394 46.1332 31.0784 46.0358C31.2174 45.9384 31.3131 45.7909 31.3455 45.6244C31.3779 45.4578 31.3443 45.2852 31.252 45.1428C31.1596 45.0005 31.0155 44.8996 30.8502 44.8614L27.8933 44.6722L39.751 36.6742L39.5619 39.631C39.5421 39.7167 39.5397 39.8055 39.5549 39.8921C39.5702 39.9788 39.6027 40.0614 39.6506 40.1352C39.6985 40.2089 39.7608 40.2723 39.8337 40.3215C39.9066 40.3707 39.9886 40.4047 40.075 40.4215C40.1613 40.4382 40.2501 40.4375 40.3361 40.4192C40.4222 40.4009 40.5036 40.3654 40.5757 40.315C40.6477 40.2645 40.7088 40.2001 40.7554 40.1255C40.802 40.0509 40.8331 39.9677 40.8468 39.8808L41.3375 35.3723C41.3705 35.2019 41.3346 35.0254 41.2375 34.8815C41.1405 34.7377 40.9903 34.6382 40.8199 34.605L36.3114 34.1142C36.2258 34.0944 36.137 34.0921 36.0503 34.1073C35.9637 34.1226 35.8811 34.1551 35.8073 34.203C35.7335 34.2509 35.6702 34.3131 35.621 34.386C35.5718 34.4589 35.5378 34.541 35.521 34.6273C35.5042 34.7137 35.505 34.8025 35.5233 34.8885C35.5416 34.9745 35.577 35.056 35.6275 35.128C35.6779 35.2001 35.7424 35.2612 35.817 35.3078C35.8916 35.3544 35.9748 35.3855 36.0617 35.3992L39.0186 35.5883L27.1609 43.5864L27.35 40.6295C27.383 40.4591 27.347 40.2826 27.25 40.1387C27.153 39.9948 27.0028 39.8954 26.8324 39.8622Z" fill="#4F158D"/>
<path d="M42.5634 24.7275C42.4407 24.8503 42.3718 25.0168 42.3718 25.1903C42.3718 25.3639 42.4407 25.5303 42.5634 25.6531L46.0267 28.5811C46.1495 28.7037 46.3159 28.7726 46.4895 28.7726C46.663 28.7726 46.8295 28.7037 46.9522 28.5811L49.8802 25.1177C49.9959 24.9936 50.0588 24.8294 50.0558 24.6597C50.0529 24.4901 49.9841 24.3282 49.8641 24.2082C49.7441 24.0882 49.5823 24.0195 49.4126 24.0165C49.2429 24.0135 49.0787 24.0765 48.9546 24.1922L47.1443 26.5378V12.2349L49.49 14.0451C49.5499 14.1094 49.6222 14.1611 49.7026 14.1968C49.7829 14.2326 49.8696 14.2519 49.9575 14.2534C50.0455 14.255 50.1328 14.2388 50.2144 14.2059C50.2959 14.1729 50.37 14.1239 50.4322 14.0617C50.4944 13.9995 50.5434 13.9255 50.5763 13.8439C50.6093 13.7624 50.6254 13.675 50.6239 13.5871C50.6223 13.4992 50.6031 13.4124 50.5673 13.3321C50.5315 13.2518 50.4799 13.1795 50.4156 13.1195L46.9522 10.1916C46.8295 10.0689 46.663 10.0001 46.4895 10.0001C46.3159 10.0001 46.1495 10.0689 46.0267 10.1916L43.0987 13.6549C43.0344 13.7148 42.9828 13.7871 42.947 13.8675C42.9112 13.9478 42.8919 14.0345 42.8904 14.1225C42.8888 14.2104 42.905 14.2977 42.9379 14.3793C42.9709 14.4608 43.0199 14.5349 43.0821 14.5971C43.1443 14.6593 43.2184 14.7083 43.2999 14.7412C43.3815 14.7742 43.4688 14.7904 43.5567 14.7888C43.6447 14.7873 43.7314 14.768 43.8117 14.7322C43.8921 14.6964 43.9644 14.6448 44.0243 14.5805L45.8346 12.2349V26.5378L43.4889 24.7275C43.3661 24.6049 43.1997 24.536 43.0261 24.536C42.8526 24.536 42.6861 24.6049 42.5634 24.7275Z" fill="#4F158D"/>
</svg>
