<svg width="40" height="40" viewBox="0 0 40 40" fill="none" xmlns="http://www.w3.org/2000/svg">
<path d="M9.7626 17.0032H2C1.44772 17.0032 1 17.4509 1 18.0032V37.7528C1 38.3051 1.44772 38.7528 2 38.7528H9.7626C10.3149 38.7528 10.7626 38.305 10.7626 37.7528V18.0032C10.7626 17.4509 10.3149 17.0032 9.7626 17.0032Z" stroke="#4F158D" stroke-width="1.5"/>
<path d="M11.0096 36.652L18.2946 38.998C18.2986 38.9993 18.3028 39 18.3071 39H36.0085C37.4899 39 38.6909 37.799 38.6909 36.3175V36.3175C38.6909 34.9865 37.7149 33.8568 36.398 33.6635L30.6584 32.8211H35.7251C37.3631 32.8211 38.6909 31.4933 38.6909 29.8553V29.8553C38.6909 28.2173 37.3631 26.8894 35.7251 26.8894H31.8324L36.2826 26.6993C37.8363 26.6329 39.0617 25.354 39.0617 23.7989V23.7989C39.0617 22.1956 37.762 20.8959 36.1587 20.8959H32.3885L36.7892 20.2996C38.0594 20.1274 39.012 19.051 39.0283 17.7693V17.7693C39.0467 16.3279 37.8833 15.1496 36.4418 15.1496H23.9234C25.6035 5.65937 24.5619 2.44681 21.1243 1.2683C20.5998 1.0885 20.0586 1.44749 19.9379 1.98859C16.7865 16.1063 13.4188 19.413 10.7007 19.413" stroke="#4F158D" stroke-width="1.5"/>
</svg>
