<svg width="17" height="14" viewBox="0 0 17 14" fill="none" xmlns="http://www.w3.org/2000/svg">
<path d="M1.7421 6.02523C6.10417 4.17299 9.0129 2.95188 10.4683 2.3619C14.6237 0.677383 15.4872 0.384765 16.05 0.375103C16.1738 0.372978 16.4505 0.402876 16.6298 0.544654C16.7812 0.664369 16.8228 0.826086 16.8428 0.939589C16.8627 1.05309 16.8875 1.31165 16.8678 1.51369C16.6426 3.81966 15.6682 9.41564 15.1725 11.9984C14.9628 13.0912 14.5498 13.4576 14.1499 13.4935C13.281 13.5714 12.6212 12.9338 11.7795 12.3961C10.4626 11.5548 9.7186 11.031 8.44026 10.21C6.96293 9.26117 7.92063 8.73968 8.76255 7.88742C8.98289 7.66437 12.8115 4.2704 12.8856 3.96251C12.8948 3.924 12.9034 3.78047 12.8159 3.70468C12.7284 3.62889 12.5993 3.65481 12.5061 3.67542C12.374 3.70464 10.2702 5.0599 6.19458 7.74122C5.59741 8.14088 5.05651 8.3356 4.57188 8.3254C4.03762 8.31415 3.00991 8.03099 2.24592 7.78895C1.30885 7.49207 0.564084 7.33511 0.628937 6.83093C0.662716 6.56833 1.03377 6.29976 1.7421 6.02523Z" fill="white"/>
</svg>
