<svg width="56" height="56" viewBox="0 0 56 56" fill="none" xmlns="http://www.w3.org/2000/svg">
<path d="M18.3602 36.0732L16.3333 51.3334L27.0396 44.9096C27.3888 44.7001 27.5634 44.5953 27.7498 44.5544C27.9146 44.5182 28.0854 44.5182 28.2502 44.5544C28.4366 44.5953 28.6112 44.7001 28.9604 44.9096L39.6667 51.3334L37.6411 36.0666M38.3271 9.91407C38.6874 10.7856 39.3791 11.4784 40.2501 11.8401L43.3042 13.1051C44.1757 13.4662 44.8682 14.1587 45.2292 15.0303C45.5903 15.9019 45.5903 16.8812 45.2292 17.7529L43.9651 20.8048C43.6039 21.6768 43.6034 22.6572 43.9662 23.5287L45.2282 26.5798C45.4072 27.0115 45.4993 27.4743 45.4994 27.9416C45.4995 28.4089 45.4075 28.8717 45.2286 29.3034C45.0498 29.7352 44.7876 30.1275 44.4571 30.4579C44.1267 30.7883 43.7343 31.0503 43.3025 31.229L40.2506 32.4932C39.3791 32.8536 38.6864 33.5453 38.3247 34.4163L37.0597 37.4705C36.6986 38.3421 36.0062 39.0346 35.1346 39.3956C34.263 39.7566 33.2837 39.7567 32.4121 39.3956L29.3602 38.1314C28.4886 37.7713 27.5097 37.772 26.6386 38.1335L23.5846 39.3968C22.7135 39.757 21.735 39.7566 20.8641 39.3959C19.9933 39.0352 19.3012 38.3435 18.9399 37.4728L17.6745 34.4177C17.3142 33.5462 16.6225 32.8534 15.7515 32.4917L12.6974 31.2266C11.8262 30.8658 11.1339 30.1737 10.7728 29.3026C10.4116 28.4315 10.4111 27.4526 10.7714 26.5811L12.0356 23.5291C12.3957 22.6575 12.395 21.6785 12.0335 20.8074L10.7712 17.7511C10.5922 17.3194 10.5001 16.8566 10.5 16.3893C10.4999 15.922 10.5919 15.4592 10.7708 15.0274C10.9496 14.5957 11.2118 14.2034 11.5422 13.873C11.8727 13.5426 12.2651 13.2806 12.6969 13.1019L15.7488 11.8377C16.6195 11.4776 17.3118 10.7868 17.6738 9.91679L18.9388 6.8626C19.2998 5.99099 19.9923 5.2985 20.8639 4.93746C21.7355 4.57643 22.7148 4.57643 23.5864 4.93746L26.6382 6.20164C27.5098 6.56178 28.4888 6.56105 29.3598 6.19959L32.4152 4.93942C33.2867 4.57859 34.2658 4.57867 35.1372 4.93963C36.0086 5.30059 36.701 5.99289 37.062 6.86427L38.3274 9.91936L38.3271 9.91407Z" stroke="#4F158D" stroke-width="2" stroke-linecap="round" stroke-linejoin="round"/>
</svg>
