<svg width="50" height="50" viewBox="0 0 50 50" fill="none" xmlns="http://www.w3.org/2000/svg">
<path d="M41.6668 26.0417V14.1667C41.6668 10.6664 41.6668 8.91619 40.9856 7.57925C40.3864 6.40323 39.4303 5.4471 38.2543 4.8479C36.9173 4.16669 35.1672 4.16669 31.6668 4.16669H18.3335C14.8332 4.16669 13.083 4.16669 11.7461 4.8479C10.57 5.4471 9.61391 6.40323 9.01471 7.57925C8.3335 8.91619 8.3335 10.6664 8.3335 14.1667V35.8334C8.3335 39.3337 8.3335 41.0838 9.01471 42.4208C9.61391 43.5968 10.57 44.5529 11.7461 45.1521C13.083 45.8334 14.8332 45.8334 18.3335 45.8334H25.0002M29.1668 22.9167H16.6668M20.8335 31.25H16.6668M33.3335 14.5834H16.6668M30.2085 39.5834L34.3752 43.75L43.7502 34.375" stroke="#4F158D" stroke-width="2" stroke-linecap="round" stroke-linejoin="round"/>
</svg>
