<svg width="50" height="50" viewBox="0 0 50 50" fill="none" xmlns="http://www.w3.org/2000/svg">
<path d="M26.902 35.4167H41.8477M26.902 35.4167L22.9165 43.75M26.902 35.4167L32.8713 22.9355C33.3523 21.9297 33.5928 21.4269 33.9219 21.268C34.208 21.1298 34.5416 21.1298 34.8278 21.268C35.1569 21.4269 35.3974 21.9297 35.8784 22.9355L41.8477 35.4167M41.8477 35.4167L45.8332 43.75M4.1665 10.4167H16.6665M16.6665 10.4167H23.9582M16.6665 10.4167V6.25M23.9582 10.4167H29.1665M23.9582 10.4167C22.9245 16.5777 20.5261 22.1587 17.0114 26.8426M20.8332 29.1667C19.5571 28.5933 18.2554 27.796 17.0114 26.8426M17.0114 26.8426C14.1936 24.6828 11.6723 21.7222 10.4165 18.75M17.0114 26.8426C13.6683 31.2978 9.31533 34.9413 4.1665 37.5" stroke="#4F158D" stroke-width="2" stroke-linecap="round" stroke-linejoin="round"/>
</svg>
