<svg width="40" height="42" viewBox="0 0 40 42" fill="none" xmlns="http://www.w3.org/2000/svg">
<path d="M13.75 40.75V25.3334C13.75 24.1666 13.75 23.5832 13.9771 23.1375C14.1768 22.7455 14.4955 22.4268 14.8875 22.2271C15.3332 22 15.9166 22 17.0833 22H22.9167C24.0834 22 24.6668 22 25.1125 22.2271C25.5045 22.4268 25.8232 22.7455 26.0229 23.1375C26.25 23.5832 26.25 24.1666 26.25 25.3334V40.75M17.9535 2.75839L3.82373 13.7482C2.87921 14.4829 2.40695 14.8502 2.06672 15.3102C1.76535 15.7177 1.54084 16.1767 1.40422 16.6648C1.25 17.2157 1.25 17.814 1.25 19.0106V34.0834C1.25 36.4169 1.25 37.5837 1.70414 38.475C2.10361 39.259 2.74103 39.8964 3.52504 40.2959C4.41634 40.75 5.58311 40.75 7.91667 40.75H32.0833C34.4169 40.75 35.5837 40.75 36.475 40.2959C37.259 39.8964 37.8964 39.259 38.2959 38.475C38.75 37.5837 38.75 36.4169 38.75 34.0834V19.0106C38.75 17.814 38.75 17.2157 38.5958 16.6648C38.4592 16.1767 38.2347 15.7177 37.9333 15.3102C37.593 14.8502 37.1208 14.4829 36.1763 13.7482L22.0465 2.75839C21.3145 2.18912 20.9486 1.90448 20.5445 1.79506C20.1879 1.69852 19.8121 1.69852 19.4555 1.79506C19.0514 1.90448 18.6855 2.18911 17.9535 2.75839Z" stroke="#4F158D" stroke-width="2" stroke-linecap="round" stroke-linejoin="round"/>
</svg>
