<svg width="40" height="44" viewBox="0 0 40 44" fill="none" xmlns="http://www.w3.org/2000/svg">
<path d="M37.7083 12.1619L19.9999 21.9999M19.9999 21.9999L2.2916 12.1619M19.9999 21.9999L20 41.7916M38.75 30.4553V13.5446C38.75 12.8308 38.75 12.4739 38.6448 12.1556C38.5518 11.8739 38.3997 11.6154 38.1987 11.3973C37.9715 11.1508 37.6595 10.9775 37.0355 10.6308L21.6188 2.06598C21.028 1.73773 20.7325 1.57361 20.4197 1.50926C20.1428 1.45232 19.8572 1.45232 19.5803 1.50926C19.2675 1.57361 18.972 1.73773 18.3812 2.06598L2.96452 10.6308C2.34052 10.9775 2.02851 11.1508 1.80132 11.3973C1.60033 11.6154 1.44822 11.8739 1.35518 12.1556C1.25 12.4739 1.25 12.8308 1.25 13.5447V30.4553C1.25 31.1691 1.25 31.5261 1.35518 31.8444C1.44822 32.126 1.60033 32.3845 1.80132 32.6026C2.02851 32.8491 2.34052 33.0225 2.96453 33.3692L18.3812 41.934C18.972 42.2622 19.2675 42.4263 19.5803 42.4907C19.8572 42.5476 20.1428 42.5476 20.4197 42.4907C20.7325 42.4263 21.028 42.2622 21.6188 41.934L37.0355 33.3692C37.6595 33.0225 37.9715 32.8491 38.1987 32.6026C38.3997 32.3845 38.5518 32.126 38.6448 31.8444C38.75 31.5261 38.75 31.1691 38.75 30.4553Z" stroke="#4F158D" stroke-width="2" stroke-linecap="round" stroke-linejoin="round"/>
</svg>
