<svg width="98" height="63" viewBox="0 0 98 63" fill="none" xmlns="http://www.w3.org/2000/svg">
<path d="M26.183 53.6508C26.183 58.2278 22.324 62 17.486 62C12.6481 62 8.78906 58.2278 8.78906 53.6508C8.78906 49.0737 12.6481 45.3016 17.486 45.3016C22.324 45.3016 26.183 49.0737 26.183 53.6508Z" stroke="#4F158D" stroke-width="2"/>
<path d="M88.2455 53.6508C88.2455 58.2278 84.3865 62 79.5485 62C74.7106 62 70.8516 58.2278 70.8516 53.6508C70.8516 49.0737 74.7106 45.3016 79.5485 45.3016C84.3865 45.3016 88.2455 49.0737 88.2455 53.6508Z" stroke="#4F158D" stroke-width="2"/>
<path d="M26.0315 51.3842H65.9169M70.8682 51.3842H65.9169M10.0774 51.3842H1M1 51.3842V52.127C1 53.7838 2.34315 55.127 4 55.127H9.25215M1 51.3842V4C1 2.34315 2.34315 1 4 1H62.9169C64.5738 1 65.9169 2.34315 65.9169 4V7.90983M87.0974 51.3842H97M97 51.3842V52.127C97 53.7838 95.6568 55.127 94 55.127H87.9226M97 51.3842V43.8985M87.0974 25.1844L95.8524 32.0571C96.5769 32.6258 97 33.4958 97 34.4169V38.1403M87.0974 25.1844L82.2615 9.99947C81.8651 8.75491 80.7091 7.90983 79.4029 7.90983H65.9169M87.0974 25.1844H65.9169M65.9169 7.90983V25.1844M65.9169 51.3842V25.1844M26.8567 55.127H70.318M97 38.1403H96.3032C94.7131 38.1403 93.4241 39.4293 93.4241 41.0194V41.0194C93.4241 42.6095 94.7131 43.8985 96.3032 43.8985H97M97 38.1403V43.8985" stroke="#4F158D" stroke-width="2"/>
</svg>
