<svg width="129" height="129" viewBox="0 0 129 129" fill="none" xmlns="http://www.w3.org/2000/svg">
<path d="M57.8512 61.5235L22.693 44.9004C21.9569 44.5524 21.9231 43.5175 22.6349 43.1221L23.4112 42.691M57.8512 61.5235C54.0393 65.6577 46.8272 73.5878 44.9152 76.0682C44.6181 76.4536 44.097 76.7108 43.6156 76.6389C39.0585 75.9589 33.1524 75.1627 30.3158 74.7901C30.0711 74.7579 29.8257 74.818 29.6223 74.9578L25.5381 77.7652C24.8931 78.2085 24.9844 79.1875 25.7003 79.5039L38.6983 85.2496C39.2897 85.511 39.4813 86.2565 39.0892 86.7706L36.0987 90.6919C35.3918 91.6189 36.5733 92.8004 37.5003 92.0935L41.9062 88.7335C42.1732 88.5298 42.5605 88.6295 42.6964 88.9368L49.0362 103.279C49.2006 103.651 49.7092 103.698 49.9394 103.363L53.3389 98.418C53.4115 98.3124 53.4427 98.186 53.4261 98.0589C53.0541 95.2203 52.2007 88.8808 51.4934 84.1767C51.4558 83.9268 51.5889 83.669 51.7947 83.5225C53.7267 82.1478 61.6827 74.9294 66.1503 70.8186C66.1854 70.7862 66.2234 70.7598 66.2633 70.7391M57.8512 61.5235L59.9919 59.2121C60.4656 58.7006 60.2837 57.8734 59.6389 57.6079L23.4112 42.691M59.914 46.9692L70.7479 48.7699C71.0663 48.8228 71.3886 48.7208 71.6169 48.4926C74.6647 45.4448 81.0347 39.0748 84.8429 35.2666C88.591 31.5185 93.2912 30.7558 95.5016 30.8387C95.7353 30.8475 95.9519 30.9519 96.1172 31.1172L96.5961 31.5961L97.1979 32.1979C97.2838 32.2838 97.3376 32.3967 97.3451 32.518C97.4752 34.648 96.7744 39.5006 92.9256 43.3493L79.5244 56.7505C79.4059 56.869 79.3543 57.0351 79.3818 57.2004L81.223 68.2782M59.914 46.9692L26.2346 41.3713C26.0117 41.3343 25.7827 41.3738 25.5851 41.4836L23.4112 42.691M59.914 46.9692L62.806 44.0772C63.7241 43.1591 64.7889 41.2861 63.1723 39.6695C61.5558 38.053 59.499 38.9341 58.5809 39.8522L52.5216 45.9115M81.223 68.2782L82.4274 75.524M81.223 68.2782L84.115 65.3862C85.0331 64.4681 86.9061 63.4034 88.5227 65.0199C90.1392 66.6364 89.2581 68.6932 88.3401 69.6113L82.4274 75.524M82.4274 75.524L86.8484 102.123C86.8676 102.239 86.8471 102.358 86.7901 102.46L85.7028 104.418M82.4274 75.524L82.2807 75.6706M66.2633 70.7391C66.5158 70.608 66.8414 70.7065 66.9709 70.9803L83.6918 106.345C83.8726 106.728 84.4102 106.745 84.6155 106.376L85.7028 104.418M66.2633 70.7391L68.8848 68.1176C69.3867 67.6157 70.2372 67.7818 70.5132 68.4358L85.7028 104.418" stroke="#4F158D" stroke-width="2"/>
<rect width="5" height="1" rx="0.5" transform="matrix(0.796755 -0.604302 -0.604302 -0.796755 73.6045 105.818)" fill="#4F158D"/>
<rect width="7" height="1" rx="0.5" transform="matrix(0.796755 -0.604302 -0.604302 -0.796755 74.6045 109.027)" fill="#4F158D"/>
<rect width="10" height="1" rx="0.5" transform="matrix(0.796755 -0.604302 -0.604302 -0.796755 74.4365 113.357)" fill="#4F158D"/>
<rect width="5" height="1" rx="0.5" transform="matrix(0.707107 -0.707107 -0.707107 -0.707107 22.707 54.0122)" fill="#4F158D"/>
<rect width="7" height="1" rx="0.5" transform="matrix(0.707107 -0.707107 -0.707107 -0.707107 18.707 53.6569)" fill="#4F158D"/>
<rect width="10" height="1" rx="0.5" transform="matrix(0.707107 -0.707107 -0.707107 -0.707107 13.707 53.9334)" fill="#4F158D"/>
</svg>
