<svg width="91" height="72" viewBox="0 0 91 72" fill="none" xmlns="http://www.w3.org/2000/svg">
<path d="M0 15.176H85.4844C86.166 15.176 86.5068 15.176 86.823 15.2848C87.1392 15.3936 87.4079 15.6032 87.9453 16.0226L88.4609 16.4249C89.2167 17.0148 89.5947 17.3097 89.7973 17.7249C90 18.1402 90 18.6196 90 19.5784V23.576M79.186 63.476H86C87.8856 63.476 88.8284 63.476 89.4142 62.8902C90 62.3044 90 61.3616 90 59.476V41.076M90 23.576H88.7674C86.8818 23.576 85.939 23.576 85.3532 24.1618C84.7674 24.7476 84.7674 25.6904 84.7674 27.576V37.076C84.7674 38.9616 84.7674 39.9044 85.3532 40.4902C85.939 41.076 86.8818 41.076 88.7674 41.076H90M90 23.576V41.076M51.9767 63.476H61.3953M33.8372 63.476H0M0 59.2164H34.65M51.75 59.2164H62.1M79.2 59.2164H90M27.3953 41.076H17.9535C16.0679 41.076 15.1251 41.076 14.5393 40.4902C13.9535 39.9044 13.9535 38.9616 13.9535 37.076V27.576C13.9535 25.6904 13.9535 24.7476 14.5393 24.1618C15.1251 23.576 16.0679 23.576 17.9535 23.576H27.3953C29.281 23.576 30.2238 23.576 30.8096 24.1618C31.3953 24.7476 31.3953 25.6904 31.3953 27.576V37.076C31.3953 38.9616 31.3953 39.9044 30.8096 40.4902C30.2238 41.076 29.281 41.076 27.3953 41.076ZM65.4186 41.076H55.9767C54.0911 41.076 53.1483 41.076 52.5625 40.4902C51.9767 39.9044 51.9767 38.9616 51.9767 37.076V27.576C51.9767 25.6904 51.9767 24.7476 52.5625 24.1618C53.1483 23.576 54.0911 23.576 55.9767 23.576H65.4186C67.3042 23.576 68.247 23.576 68.8328 24.1618C69.4186 24.7476 69.4186 25.6904 69.4186 27.576V37.076C69.4186 38.9616 69.4186 39.9044 68.8328 40.4902C68.247 41.076 67.3042 41.076 65.4186 41.076Z" stroke="#4F158D" stroke-width="2"/>
<path d="M74.6533 15.176V5.02598M74.6533 5.02598H69.0719M74.6533 5.02598H75.869C76.7389 5.02598 77.444 4.32082 77.444 3.45098V3.45098C77.444 2.58113 76.7389 1.87598 75.869 1.87598H67.8562C66.9864 1.87598 66.2812 2.58113 66.2812 3.45098V3.45098C66.2812 4.32082 66.9864 5.02598 67.8563 5.02598H69.0719M69.0719 5.02598V15.176" stroke="#4F158D" stroke-width="2"/>
<path d="M79.2302 62.076C79.2302 66.9392 75.3017 70.876 70.4628 70.876C65.6238 70.876 61.6953 66.9392 61.6953 62.076C61.6953 57.2127 65.6238 53.276 70.4628 53.276C75.3017 53.276 79.2302 57.2127 79.2302 62.076Z" stroke="#4F158D" stroke-width="2"/>
<path d="M52.0193 62.076C52.0193 66.9392 48.0908 70.876 43.2518 70.876C38.4128 70.876 34.4844 66.9392 34.4844 62.076C34.4844 57.2127 38.4128 53.276 43.2518 53.276C48.0908 53.276 52.0193 57.2127 52.0193 62.076Z" stroke="#4F158D" stroke-width="2"/>
</svg>
