<svg width="78" height="78" viewBox="0 0 78 78" fill="none" xmlns="http://www.w3.org/2000/svg">
<path d="M36.8512 31.754L1.693 15.1309C0.956892 14.7828 0.923082 13.748 1.63491 13.3526L2.41122 12.9214M36.8512 31.754C33.0393 35.8881 25.8272 43.8183 23.9152 46.2986C23.6181 46.684 23.097 46.9412 22.6156 46.8694C18.0585 46.1894 12.1524 45.3932 9.31581 45.0206C9.07111 44.9884 8.82571 45.0484 8.62232 45.1882L4.5381 47.9956C3.89313 48.439 3.98444 49.4179 4.70026 49.7344L17.6983 55.48C18.2897 55.7415 18.4813 56.4869 18.0892 57.0011L15.0987 60.9224C14.3918 61.8494 15.5733 63.0309 16.5003 62.324L20.9062 58.964C21.1732 58.7603 21.5605 58.8599 21.6964 59.1672L28.0362 73.5094C28.2006 73.8813 28.7092 73.9289 28.9394 73.594L32.3389 68.6485C32.4115 68.5429 32.4427 68.4165 32.4261 68.2894C32.0541 65.4508 31.2007 59.1112 30.4934 54.4072C30.4558 54.1573 30.5889 53.8995 30.7947 53.753C32.7267 52.3783 40.6827 45.1599 45.1503 41.049C45.1854 41.0167 45.2234 40.9903 45.2633 40.9696M36.8512 31.754L38.9919 29.4426C39.4656 28.931 39.2837 28.1039 38.6389 27.8384L2.41122 12.9214M38.914 17.1996L49.7479 19.0003C50.0663 19.0533 50.3886 18.9513 50.6169 18.7231C53.6647 15.6753 60.0347 9.30527 63.8429 5.49709C67.591 1.74895 72.2912 0.986281 74.5016 1.06917C74.7353 1.07793 74.9519 1.18234 75.1172 1.3477L75.5961 1.82658L76.1979 2.42835C76.2838 2.5143 76.3376 2.62719 76.3451 2.74849C76.4752 4.87847 75.7744 9.73105 71.9256 13.5798L58.5244 26.981C58.4059 27.0995 58.3543 27.2655 58.3818 27.4309L60.223 38.5086M38.914 17.1996L5.23462 11.6018C5.01165 11.5647 4.78271 11.6043 4.58512 11.7141L2.41122 12.9214M38.914 17.1996L41.806 14.3077C42.7241 13.3896 43.7889 11.5166 42.1723 9.90001C40.5558 8.28346 38.499 9.16455 37.5809 10.0826L31.5216 16.142M60.223 38.5086L61.4274 45.7545M60.223 38.5086L63.115 35.6167C64.0331 34.6986 65.9061 33.6338 67.5227 35.2504C69.1392 36.8669 68.2581 38.9237 67.3401 39.8418L61.4274 45.7545M61.4274 45.7545L65.8484 72.3535C65.8676 72.4694 65.8471 72.5883 65.7901 72.6909L64.7028 74.6485M61.4274 45.7545L61.2807 45.9011M45.2633 40.9696C45.5158 40.8384 45.8414 40.937 45.9709 41.2107L62.6918 76.5757C62.8726 76.9581 63.4102 76.9759 63.6155 76.6062L64.7028 74.6485M45.2633 40.9696L47.8848 38.348C48.3867 37.8461 49.2372 38.0123 49.5132 38.6662L64.7028 74.6485" stroke="#4F158D" stroke-width="2"/>
</svg>
